HIERARCHY
ROOT hip
{
  OFFSET 0 0 0
  CHANNELS 6 Xposition Yposition Zposition Zrotation Yrotation Xrotation
  JOINT abdomen
  {
    OFFSET 0 20.6881 -0.73152
    CHANNELS 3 Zrotation Xrotation Yrotation
    JOINT chest
    {
      OFFSET 0 11.7043 -0.48768
      CHANNELS 3 Zrotation Xrotation Yrotation
      JOINT neck
      {
        OFFSET 0 22.1894 -2.19456
        CHANNELS 3 Zrotation Xrotation Yrotation
        JOINT head
        {
          OFFSET -0.24384 7.07133 1.2192
          CHANNELS 3 Zrotation Xrotation Yrotation
          JOINT leftEye
          {
            OFFSET 4.14528 8.04674 8.04672
            CHANNELS 3 Zrotation Xrotation Yrotation
            End Site
            {
              OFFSET 1 0 0
            }
          }
          JOINT rightEye
          {
            OFFSET -3.6576 8.04674 8.04672
            CHANNELS 3 Zrotation Xrotation Yrotation
            End Site
            {
              OFFSET 1 0 0
            }
          }
        }
      }
      JOINT rCollar
      {
        OFFSET -2.68224 19.2634 -4.8768
        CHANNELS 3 Zrotation Xrotation Yrotation
        JOINT rShldr
        {
          OFFSET -8.77824 -1.95073 1.46304
          CHANNELS 3 Zrotation Xrotation Yrotation
          JOINT rForeArm
          {
            OFFSET -28.1742 -1.7115 0.48768
            CHANNELS 3 Zrotation Xrotation Yrotation
            JOINT rHand
            {
              OFFSET -22.5879 0.773209 7.07136
              CHANNELS 3 Zrotation Xrotation Yrotation
              JOINT rThumb1
              {
                OFFSET -1.2192 -0.487915 3.41376
                CHANNELS 3 Zrotation Xrotation Yrotation
                JOINT rThumb2
                {
                  OFFSET -3.37035 -0.52449 3.41376
                  CHANNELS 3 Zrotation Xrotation Yrotation
                  End Site
                  {
                    OFFSET -1.78271 -1.18214 1.43049
                  }
                }
              }
              JOINT rIndex1
              {
                OFFSET -7.75947 0.938293 5.60832
                CHANNELS 3 Zrotation Xrotation Yrotation
                JOINT rIndex2
                {
                  OFFSET -2.54057 -0.884171 1.56538
                  CHANNELS 3 Zrotation Xrotation Yrotation
                  End Site
                  {
                    OFFSET -1.62519 -0.234802 1.16502
                  }
                }
              }
              JOINT rMid1
              {
                OFFSET -8.24714 1.18213 3.41376
                CHANNELS 3 Zrotation Xrotation Yrotation
                JOINT rMid2
                {
                  OFFSET -3.10165 -0.590103 1.0647
                  CHANNELS 3 Zrotation Xrotation Yrotation
                  End Site
                  {
                    OFFSET -2.48547 -0.328903 0.83742
                  }
                }
              }
              JOINT rRing1
              {
                OFFSET -8.82822 0.546677 1.51678
                CHANNELS 3 Zrotation Xrotation Yrotation
                JOINT rRing2
                {
                  OFFSET -2.60934 -0.819778 -0.0198488
                  CHANNELS 3 Zrotation Xrotation Yrotation
                  End Site
                  {
                    OFFSET -2.33842 -0.294052 0.168128
                  }
                }
              }
              JOINT rPinky1
              {
                OFFSET -8.27202 -0.0477905 -0.4584
                CHANNELS 3 Zrotation Xrotation Yrotation
                JOINT rPinky2
                {
                  OFFSET -1.82734 -0.647385 -0.700984
                  CHANNELS 3 Zrotation Xrotation Yrotation
                  End Site
                  {
                    OFFSET -1.69225 -0.51767 -0.607171
                  }
                }
              }
            }
          }
        }
      }
      JOINT lCollar
      {
        OFFSET 2.68224 19.2634 -4.8768
        CHANNELS 3 Zrotation Xrotation Yrotation
        JOINT lShldr
        {
          OFFSET 8.77824 -1.95073 1.46304
          CHANNELS 3 Zrotation Xrotation Yrotation
          JOINT lForeArm
          {
            OFFSET 28.1742 -1.7115 0.48768
            CHANNELS 3 Zrotation Xrotation Yrotation
            JOINT lHand
            {
              OFFSET 22.5879 0.773209 7.07136
              CHANNELS 3 Zrotation Xrotation Yrotation
              JOINT lThumb1
              {
                OFFSET 1.2192 -0.487915 3.41376
                CHANNELS 3 Zrotation Xrotation Yrotation
                JOINT lThumb2
                {
                  OFFSET 3.37035 -0.52449 3.41376
                  CHANNELS 3 Zrotation Xrotation Yrotation
                  End Site
                  {
                    OFFSET 1.78271 -1.18214 1.43049
                  }
                }
              }
              JOINT lIndex1
              {
                OFFSET 7.75947 0.938293 5.60832
                CHANNELS 3 Zrotation Xrotation Yrotation
                JOINT lIndex2
                {
                  OFFSET 2.54057 -0.884171 1.56538
                  CHANNELS 3 Zrotation Xrotation Yrotation
                  End Site
                  {
                    OFFSET 1.62519 -0.234802 1.16502
                  }
                }
              }
              JOINT lMid1
              {
                OFFSET 8.24714 1.18213 3.41376
                CHANNELS 3 Zrotation Xrotation Yrotation
                JOINT lMid2
                {
                  OFFSET 3.10165 -0.590103 1.0647
                  CHANNELS 3 Zrotation Xrotation Yrotation
                  End Site
                  {
                    OFFSET 2.48547 -0.328903 0.83742
                  }
                }
              }
              JOINT lRing1
              {
                OFFSET 8.82822 0.546677 1.51678
                CHANNELS 3 Zrotation Xrotation Yrotation
                JOINT lRing2
                {
                  OFFSET 2.60934 -0.819778 -0.0198488
                  CHANNELS 3 Zrotation Xrotation Yrotation
                  End Site
                  {
                    OFFSET 2.33842 -0.294052 0.168128
                  }
                }
              }
              JOINT lPinky1
              {
                OFFSET 8.27202 -0.0477905 -0.4584
                CHANNELS 3 Zrotation Xrotation Yrotation
                JOINT lPinky2
                {
                  OFFSET 1.82734 -0.647385 -0.700984
                  CHANNELS 3 Zrotation Xrotation Yrotation
                  End Site
                  {
                    OFFSET 1.69225 -0.51767 -0.607171
                  }
                }
              }
            }
          }
        }
      }
    }
  }
  JOINT rButtock
  {
    OFFSET -8.77824 4.35084 1.2192
    CHANNELS 3 Zrotation Xrotation Yrotation
    JOINT rThigh
    {
      OFFSET 0 -1.70687 -2.19456
      CHANNELS 3 Zrotation Xrotation Yrotation
      JOINT rShin
      {
        OFFSET 0 -36.8199 0.73152
        CHANNELS 3 Zrotation Xrotation Yrotation
        JOINT rFoot
        {
          OFFSET 0.73152 -45.1104 -5.12064
          CHANNELS 3 Zrotation Xrotation Yrotation
          End Site
          {
            OFFSET -1.1221 -3.69964 12.103
          }
        }
      }
    }
  }
  JOINT lButtock
  {
    OFFSET 8.77824 4.35084 1.2192
    CHANNELS 3 Zrotation Xrotation Yrotation
    JOINT lThigh
    {
      OFFSET 0 -1.70687 -2.19456
      CHANNELS 3 Zrotation Xrotation Yrotation
      JOINT lShin
      {
        OFFSET 0 -36.8199 0.73152
        CHANNELS 3 Zrotation Xrotation Yrotation
        JOINT lFoot
        {
          OFFSET -0.73152 -45.1104 -5.12064
          CHANNELS 3 Zrotation Xrotation Yrotation
          End Site
          {
            OFFSET 1.1221 -3.69964 12.103
          }
        }
      }
    }
  }
}
MOTION
Frames:	6
Frame Time:	0.00833333
16.4716 93.9373 2.1257 -8.9158 -6.0163 14.2656 2.19708 -2.74064 -3.9738 0.0190054 -7.1668 -1.07979 -5.34968 0.714433 -1.42338 8.21622 -1.60058 -1.32105 -0.0 0.0 0.0 -0.0 0.0 0.0 -2.04486e-13 3.7022e-13 -9.91132e-14 79.4693 33.7798 -15.1954 -24.4729 -20.0081 51.1428 -0.0453815 6.0795 0.857654 -1.93653e-11 -1.39865e-10 2.78556e-09 -2.07113e-11 -2.64125e-10 4.80568e-09 -1.93601e-11 -1.39865e-10 2.78554e-09 7.73091 5.47488 0.417314 -1.93661e-11 -1.39866e-10 2.78556e-09 2.90554 0.965183 0.102902 -1.93605e-11 -1.39868e-10 2.78556e-09 10.2786 0.731801 0.0259123 -1.93728e-11 -1.39868e-10 2.78556e-09 2.22167 -0.733487 -0.20892 -2.04654e-13 3.70221e-13 -9.93574e-14 -77.8327 47.493 8.53302 22.825 -17.0507 -46.0681 0.00218983 -1.33677 0.187907 7.87633e-10 -2.38652e-09 -1.27617e-09 1.36386e-09 -4.10394e-09 -2.19621e-09 7.87631e-10 -2.38652e-09 -1.27617e-09 -7.73091 5.47488 -0.417314 7.87626e-10 -2.38652e-09 -1.27618e-09 -2.90554 0.965183 -0.102902 7.87627e-10 -2.38652e-09 -1.27617e-09 -10.2786 0.731801 -0.0259123 7.87645e-10 -2.38652e-09 -1.27618e-09 -2.22167 -0.733487 0.20892 -2.03217e-16 0.0 -3.88251e-19 -174.617 -73.9984 177.934 -177.372 41.6046 177.47 -1.08249 17.6167 2.72653 2.03217e-16 0.0 3.88251e-19 -1.52505 -25.5754 -4.14696 -0.0588845 24.0133 -0.657161 0.0240772 14.6545 3.18959
16.5892 93.7589 2.1061 -8.7054 -5.8981 14.1412 1.98476 -2.77711 -3.87541 -0.0250678 -7.10718 -1.05904 -5.22258 0.460351 -1.45825 8.19603 -1.64662 -1.39621 -0.0 0.0 0.0 -0.0 0.0 0.0 -1.46716e-13 3.88821e-13 -1.0958e-13 79.5708 33.9231 -14.7684 -24.3126 -19.693 50.6143 -0.0488581 6.29558 0.888399 1.19734e-10 -5.01457e-10 2.66964e-09 2.20338e-10 -8.89646e-10 4.60417e-09 1.19738e-10 -5.0146e-10 2.66962e-09 7.73091 5.47488 0.417314 1.19734e-10 -5.01461e-10 2.66964e-09 2.90554 0.965183 0.102902 1.19738e-10 -5.01463e-10 2.66964e-09 10.2786 0.731801 0.0259123 1.19726e-10 -5.01463e-10 2.66964e-09 2.22167 -0.733487 -0.20892 -1.46899e-13 3.88824e-13 -1.09829e-13 -78.289 47.2412 8.6476 22.5456 -16.599 -45.2907 0.00159609 -1.14069 0.160335 7.51549e-10 -1.89123e-09 -1.06058e-09 1.30139e-09 -3.24744e-09 -1.82356e-09 7.51548e-10 -1.89123e-09 -1.06058e-09 -7.73091 5.47488 -0.417314 7.51542e-10 -1.89123e-09 -1.06059e-09 -2.90554 0.965183 -0.102902 7.51543e-10 -1.89123e-09 -1.06058e-09 -10.2786 0.731801 -0.0259123 7.51559e-10 -1.89123e-09 -1.06059e-09 -2.22167 -0.733487 0.20892 -2.03217e-16 0.0 -3.88251e-19 -175.052 -74.3171 177.37 -177.374 41.4889 177.462 -1.06787 17.7697 2.64529 2.03217e-16 0.0 3.88251e-19 -1.60516 -25.8885 -4.2895 -0.0709846 24.4936 -0.637593 0.150805 12.8869 3.17143
16.6328 93.5575 2.05987 -8.7337 -6.0049 14.1786 1.89591 -2.84363 -3.74895 -0.0966583 -7.04179 -1.03308 -5.08929 0.383033 -1.49387 8.08708 -1.86869 -1.48029 -0.0 0.0 0.0 -0.0 0.0 0.0 -1.50535e-13 1.9925e-13 -2.76489e-14 79.6964 34.0629 -14.3742 -24.147 -19.3747 50.0773 -0.0507665 6.41206 0.904983 5.5917e-10 -1.12915e-09 1.87924e-09 9.75758e-10 -1.96647e-09 3.23979e-09 5.59177e-10 -1.12915e-09 1.87923e-09 7.73091 5.47488 0.417314 5.59173e-10 -1.12915e-09 1.87924e-09 2.90554 0.965183 0.102902 5.59173e-10 -1.12915e-09 1.87924e-09 10.2786 0.731801 0.0259123 5.59164e-10 -1.12915e-09 1.87925e-09 2.22167 -0.733487 -0.20892 -1.50715e-13 1.9925e-13 -2.78695e-14 -78.7951 46.9485 8.86611 22.2854 -16.1912 -44.5727 0.00140925 -1.00337 0.141032 9.71765e-10 -5.67139e-10 -5.77423e-10 1.68033e-09 -9.66437e-10 -9.91648e-10 9.71764e-10 -5.67138e-10 -5.77422e-10 -7.73091 5.47488 -0.417314 9.7176e-10 -5.6714e-10 -5.77427e-10 -2.90554 0.965183 -0.102902 9.7176e-10 -5.6714e-10 -5.77421e-10 -10.2786 0.731801 -0.0259123 9.71773e-10 -5.67139e-10 -5.77429e-10 -2.22167 -0.733487 0.20892 -2.03217e-16 0.0 -3.88251e-19 -176.074 -74.7856 176.143 -177.372 41.5328 177.452 -1.02975 17.8628 2.40671 2.03217e-16 0.0 3.88251e-19 -1.62687 -26.2072 -4.52866 -0.0827607 25.0072 -0.616818 0.29277 11.3764 3.0084
16.6622 93.284 1.96736 -8.7816 -6.2348 14.2398 1.88804 -2.92455 -3.59749 -0.194314 -6.96694 -1.00225 -4.94112 0.408873 -1.52964 7.91157 -2.18933 -1.57251 -0.0 0.0 0.0 -0.0 0.0 0.0 -1.82345e-13 -1.26575e-13 1.11816e-13 79.8468 34.1973 -14.0014 -23.979 -19.0587 49.5395 -0.051851 6.48024 0.914688 1.19609e-09 -1.95405e-09 5.94242e-10 2.06931e-09 -3.37833e-09 1.02245e-09 1.1961e-09 -1.95406e-09 5.94229e-10 7.73091 5.47488 0.417314 1.19609e-09 -1.95406e-09 5.94241e-10 2.90554 0.965183 0.102902 1.19609e-09 -1.95405e-09 5.94238e-10 10.2786 0.731801 0.0259123 1.19608e-09 -1.95405e-09 5.94248e-10 2.22167 -0.733487 -0.20892 -1.82509e-13 -1.26578e-13 1.11642e-13 -79.3121 46.6218 9.13552 22.0325 -15.8059 -43.8794 0.00137284 -0.916003 0.128749 1.33237e-09 1.41301e-09 1.37228e-10 2.30084e-09 2.44296e-09 2.38111e-10 1.33237e-09 1.41301e-09 1.3723e-10 -7.73091 5.47488 -0.417314 1.33237e-09 1.41301e-09 1.37225e-10 -2.90554 0.965183 -0.102902 1.33237e-09 1.41301e-09 1.37228e-10 -10.2786 0.731801 -0.0259123 1.33238e-09 1.41301e-09 1.3722e-10 -2.22167 -0.733487 0.20892 -2.03217e-16 0.0 -3.88251e-19 -177.686 -75.3827 174.291 -177.368 41.7231 177.441 -0.973286 17.9031 2.04857 2.03217e-16 0.0 3.88251e-19 -1.61682 -26.5071 -4.84879 -0.0950508 25.5278 -0.595742 0.449434 9.97152 2.70449
16.7234 93.0191 2.02258 -8.7473 -6.3819 14.2318 1.93102 -3.02304 -3.41239 -0.321854 -6.88249 -0.963699 -4.78247 0.460294 -1.55984 7.69943 -2.53303 -1.65894 -0.0 0.0 0.0 -0.0 0.0 0.0 -2.16343e-13 -4.43778e-13 2.33987e-13 80.0094 34.3151 -13.641 -23.8137 -18.7537 49.0209 -0.0525188 6.52441 0.920973 1.79706e-09 -2.73495e-09 -6.50332e-10 3.10085e-09 -4.71446e-09 -1.12507e-09 1.79707e-09 -2.73496e-09 -6.50341e-10 7.73091 5.47488 0.417314 1.79706e-09 -2.73496e-09 -6.50331e-10 2.90554 0.965183 0.102902 1.79706e-09 -2.73495e-09 -6.50333e-10 10.2786 0.731801 0.0259123 1.79705e-09 -2.73495e-09 -6.50322e-10 2.22167 -0.733487 -0.20892 -2.16489e-13 -4.43784e-13 2.3386e-13 -79.795 46.2663 9.41948 21.7848 -15.4379 -43.2101 0.00110593 -0.801867 0.112703 1.68317e-09 3.32468e-09 8.35443e-10 2.90461e-09 5.73425e-09 1.43953e-09 1.68317e-09 3.32469e-09 8.35447e-10 -7.73091 5.47488 -0.417314 1.68317e-09 3.32469e-09 8.35442e-10 -2.90554 0.965183 -0.102902 1.68316e-09 3.32469e-09 8.35442e-10 -10.2786 0.731801 -0.0259123 1.68317e-09 3.32469e-09 8.35434e-10 -2.22167 -0.733487 0.20892 -2.03217e-16 0.0 -3.88251e-19 -179.908 -76.0303 171.841 -177.361 42.0187 177.429 -0.906522 17.8807 1.63066 2.03217e-16 0.0 3.88251e-19 -1.58489 -26.7947 -5.11823 -0.105976 26.0519 -0.574466 0.57585 8.89415 2.40211
16.7304 92.6146 2.04176 -8.768 -6.6098 14.3073 1.99489 -3.14223 -3.18498 -0.483121 -6.78828 -0.914571 -4.61793 0.459725 -1.57875 7.48136 -2.82429 -1.72558 -0.0 0.0 0.0 -0.0 0.0 0.0 -2.26728e-13 -6.07483e-13 2.64036e-13 80.1718 34.4045 -13.2842 -23.6568 -18.4695 48.5414 -0.053216 6.56885 0.927299 2.12865e-09 -3.23062e-09 -1.31945e-09 3.67023e-09 -5.56409e-09 -2.28001e-09 2.12867e-09 -3.23063e-09 -1.31946e-09 7.73091 5.47488 0.417314 2.12866e-09 -3.23063e-09 -1.31945e-09 2.90554 0.965183 0.102902 2.12865e-09 -3.23062e-09 -1.31945e-09 10.2786 0.731801 0.0259123 2.12865e-09 -3.23062e-09 -1.31944e-09 2.22167 -0.733487 -0.20892 -2.26864e-13 -6.07491e-13 2.63936e-13 -80.2005 45.8871 9.68257 21.5401 -15.0816 -42.5642 0.000418688 -0.584258 0.082115 1.87395e-09 4.44336e-09 1.26929e-09 3.23332e-09 7.66089e-09 2.18643e-09 1.87395e-09 4.44337e-09 1.2693e-09 -7.73091 5.47488 -0.417314 1.87395e-09 4.44337e-09 1.26929e-09 -2.90554 0.965183 -0.102902 1.87395e-09 4.44337e-09 1.26929e-09 -10.2786 0.731801 -0.0259123 1.87395e-09 4.44336e-09 1.26928e-09 -2.22167 -0.733487 0.20892 -2.03217e-16 0.0 -3.88251e-19 177.276 -76.6508 168.857 -177.354 42.3785 177.419 -0.838175 17.7863 1.21295 2.03217e-16 0.0 3.88251e-19 -1.53806 -27.0775 -5.20406 -0.113647 26.5763 -0.553094 0.643177 8.36745 2.24056
